Coordinates
version=1
nRows=8
nColumns=36
inDegrees=yes

Units are S.I. units (second, meters, Newtons, ...)
If the header above contains a line with 'inDegrees', this indicates whether rotational values are in degrees (yes) or radians (no).

endheader
time	pelvis_tilt	pelvis_list	pelvis_rotation	pelvis_tx	pelvis_ty	pelvis_tz	hip_flexion_r	hip_adduction_r	hip_rotation_r	knee_angle_r	knee_angle_r_beta	ankle_angle_r	subtalar_angle_r	mtp_angle_r	hip_flexion_l	hip_adduction_l	hip_rotation_l	knee_angle_l	knee_angle_l_beta	ankle_angle_l	subtalar_angle_l	mtp_angle_l	lumbar_extension	lumbar_bending	lumbar_rotation	arm_flex_r	arm_add_r	arm_rot_r	elbow_flex_r	pro_sup_r	arm_flex_l	arm_add_l	arm_rot_l	elbow_flex_l	pro_sup_l
      2.85000000	    -21.30273376	     -2.47913351	     -6.93809989	      1.23900628	      0.86627494	     -0.13596824	     46.54500327	     -4.57712415	     -8.42262501	     54.91623153	      0.95846905	     34.83164326	    -14.05267024	     -7.49999987	     52.25784276	    -19.56913630	     -3.99317615	     58.97782943	      1.02935731	     28.83758145	     -5.80726659	     -7.49999987	    -19.85716948	      4.98902452	      5.92618294	     22.72179318	    -16.82937211	      3.71173616	     31.11710703	     81.92131322	     13.67230576	    -14.45162899	     -6.09366633	     30.81336839	     83.89620045
      2.86666670	    -19.09035153	     -3.09376805	     -6.70731749	      1.24457495	      0.88223539	     -0.13825911	     40.81599404	     -3.85696424	     -9.63389795	     49.10246468	      0.85699968	     32.23386183	    -14.53356852	     -7.49999987	     46.80495519	    -19.84166720	     -5.31663346	     54.01032543	      0.94265801	     26.86721219	     -5.47207838	     -7.49999987	    -20.17456689	      5.25787895	      6.03714518	     21.74253571	    -16.48773904	      4.06823558	     29.29735410	     82.13694875	     12.79935642	    -13.97238303	     -6.02932869	     28.70750370	     83.96404712
      2.88333330	    -15.97926188	     -3.42056585	     -6.21184823	      1.24399244	      0.90371130	     -0.13712295	     34.24724500	     -3.63202385	    -11.08059606	     43.24213514	      0.75471763	     30.31670253	    -13.68381595	     -7.49999987	     40.48868418	    -19.76978270	     -7.23357310	     48.94281018	      0.85421318	     25.21210616	     -4.47975326	     -7.49999987	    -21.92251271	      5.08521494	      5.75974174	     21.18828051	    -16.20734676	      4.62180339	     28.54308847	     82.93779275	     12.09298864	    -13.90401768	     -5.72316955	     27.67120317	     84.50426113
      2.90000000	    -13.76840353	     -3.66075272	     -5.71993204	      1.25066698	      0.92459206	     -0.13938977	     28.56247247	     -3.40929735	    -12.90872999	     37.17939708	      0.64890289	     27.73243099	    -12.68494148	     -7.49999987	     35.00641931	    -19.45732164	     -9.02027335	     43.57067372	      0.76045171	     22.94836466	     -3.92994699	     -7.49999987	    -21.86432915	      5.27931278	      5.66463090	     20.30133085	    -15.83675996	      4.76027567	     26.21206323	     82.67652777	     11.44484790	    -13.26343788	     -6.09377854	     25.09230186	     84.09058765
      2.91666670	     -8.27234397	     -3.03167284	     -5.36720481	      1.25544768	      0.94628023	     -0.13924293	     19.47740289	     -4.22208061	    -14.61413778	     31.13371707	      0.54338587	     25.85740141	    -10.49564015	     -7.49999987	     25.12038888	    -18.01276385	    -12.12669511	     37.06900812	      0.64697624	     20.50615139	     -2.94911076	     -7.49999987	    -26.32575117	      4.00284186	      4.81837818	     19.85403522	    -15.50030827	      5.55317466	     27.02651372	     82.05982250	     10.61002419	    -13.62576118	     -5.97824413	     25.67590990	     83.19050592
      2.93333330	     -5.04121807	     -2.46068117	     -5.04143578	      1.25800891	      0.96513290	     -0.13891419	     12.69090082	     -4.67144132	    -16.98307646	     24.94404821	      0.43535577	     24.21950557	     -7.05164329	     -7.49999987	     18.19090912	    -16.54515355	    -14.53800412	     30.93954728	      0.53999697	     17.93393545	     -1.85620897	     -7.49999987	    -27.45533174	      3.14200721	      4.18656765	     18.80271916	    -15.05014758	      5.66030105	     26.24994051	     83.68648344	      9.72083859	    -13.58704297	     -6.60628855	     25.07853572	     84.67911484
      2.95000000	     -3.43085922	     -1.95840020	     -4.86757692	      1.26120734	      0.97392992	     -0.13924446	      8.60698914	     -4.81804563	    -18.55746358	     20.34480654	      0.35508386	     22.75492461	     -4.59636768	     -7.49999987	     13.81450159	    -15.31240534	    -16.21158777	     26.03447394	      0.45438729	     15.65250818	     -1.01112762	     -7.49999987	    -27.04444104	      2.52307719	      3.85325079	     17.28759716	    -14.69596709	      5.76983109	     25.80330161	     84.83640171	      8.64701029	    -13.48200590	     -6.81954799	     24.70787951	     85.76957259
      2.96666670	     -3.05959836	     -1.46499526	     -4.80675332	      1.26253404	      0.98180381	     -0.13802374	      6.45839920	     -4.88904252	    -19.78642740	     16.83856545	      0.29388841	     21.51131070	     -2.55317194	     -7.49999987	     11.34668601	    -14.22624223	    -17.39280653	     22.03228580	      0.38453593	     13.66255381	     -0.38245053	     -7.49999987	    -25.37016891	      2.03139959	      3.64139130	     15.83114662	    -14.39291251	      5.97740464	     25.25097159	     85.34119821	      7.64454530	    -13.36503454	     -6.96756384	     24.25910543	     86.17804718
